<?xml version="1.0" encoding="UTF-8"?><svg id="a" xmlns="http://www.w3.org/2000/svg" viewBox="0 0 220 220"><defs><style>.b{fill:#fff;}</style></defs><path class="b" d="M181,108.68h0c-.72-38.75-32.36-69.68-71-69.68h-1.32c-38.75,.72-69.68,32.36-69.68,71v1.32c.72,38.75,32.36,69.68,70.94,69.68h1.32c38.8-.72,69.73-32.36,69.73-71v-1.32h0Zm-69.73,70.45h-1.32c-37.59,0-68.41-30.11-69.13-67.86v-1.32c0-37.59,30.11-68.41,67.86-69.13h1.32c37.59,0,68.41,30.11,69.13,67.86h0v1.32c0,37.65-30.11,68.47-67.86,69.13Z"/><path class="b" d="M102.62,98.22l.39-1.1h2.26l.39,1.1h1.27l-2.31-6.33h-.99l-2.26,6.33h1.27Zm1.49-4.46l.77,2.31h-1.54l.77-2.31Z"/><path class="b" d="M132.51,84.3c.83,.66,1.76,.94,2.7,.94,1.32-.06,1.87-.83,2.97-2.2,1.05-1.32,1.71-2.09,1.43-3.36-.17-.88-.66-1.71-1.49-2.37s-1.76-.94-2.64-.88c-1.32,.06-1.93,.83-2.97,2.15s-1.65,2.09-1.43,3.36c.11,.88,.61,1.71,1.43,2.37h0Zm1.16-4.79c1.1-1.38,1.49-1.71,2.15-1.76,.5-.06,1.05,.11,1.54,.5,.44,.39,.77,.88,.83,1.38,.11,.66-.11,1.1-1.21,2.53-1.1,1.38-1.49,1.71-2.15,1.76-.5,.06-1.05-.11-1.54-.5-.44-.39-.77-.88-.83-1.38-.11-.72,.11-1.16,1.21-2.53Z"/><path class="b" d="M143.63,121.34c0,1.1,0,2.09,.22,3.03,.17,.94,.61,1.76,1.32,2.48,1.05,1.05,2.42,1.65,4.07,1.65s3.03-.61,4.07-1.65h0c.77-.77,1.16-1.6,1.32-2.59,.17-.94,.17-1.98,.17-3.14v-.39c0-1.16,0-2.15-.22-3.14-.17-.94-.61-1.82-1.32-2.53-1.05-1.05-2.37-1.65-4.07-1.65s-3.03,.61-4.07,1.65c-.72,.72-1.1,1.6-1.32,2.48-.17,.94-.17,1.93-.17,3.03v.77h0Zm1.05-3.58c.17-.77,.44-1.43,1.05-2.04,.88-.88,1.98-1.38,3.41-1.38s2.53,.5,3.41,1.38c.61,.61,.94,1.27,1.1,2.09s.17,1.76,.17,2.92v.39c0,1.16,0,2.15-.17,2.92-.17,.83-.44,1.49-1.1,2.09h0c-.88,.88-1.93,1.38-3.41,1.38s-2.53-.5-3.47-1.38c-.61-.61-.88-1.21-1.05-2.04-.17-.77-.17-1.71-.17-2.81v-.77c.06-1.05,.11-1.98,.22-2.75h0Z"/><path class="b" d="M152.27,81.77l4.73-3.08,1.21,1.93-3.03,5.72,1.98,3.08,3.19-6.33c1.27,1.05,3.03,1.54,4.73,.5,1.98-1.27,2.59-3.96,.77-6.77l-3.41-5.34-11.89,7.65,1.71,2.64h0Zm9.8-6.33l1.6,2.48c.77,1.16,.61,2.37-.33,2.92-.94,.61-2.04,.22-2.81-.94l-1.6-2.48c0,.06,3.14-1.98,3.14-1.98Z"/><polygon class="b" points="135.43 66.85 138.01 61.68 146.16 56.45 143.08 54.91 137.85 58.65 137.74 52.15 134.71 50.61 135.26 60.24 132.62 65.42 135.43 66.85"/><polygon class="b" points="142.53 96.41 150.01 91.78 149.24 90.52 143.96 93.76 146.77 86.55 146.05 85.34 138.57 89.97 139.34 91.29 144.62 88.04 141.81 95.25 142.53 96.41"/><path class="b" d="M141.43,70.59l2.37-1.27,4.35,3.8-.94,2.53,2.48,2.15,4.84-14.53-1.87-1.65-13.76,6.77,2.53,2.2h0Zm9.47-4.95l-1.87,5.17-3.03-2.64,4.9-2.53h0Z"/><polygon class="b" points="109.28 83.8 109.28 87.65 109.89 87.65 109.89 84.96 112.31 87.65 112.64 87.65 112.64 83.8 112.04 83.8 112.04 86.5 109.61 83.8 109.28 83.8"/><polygon class="b" points="107.91 91.89 110 98.22 110.88 98.22 112.97 91.89 111.71 91.89 110.44 96.02 109.17 91.89 107.91 91.89"/><path class="b" d="M159.59,97.07c.5,1.6,1.32,2.97,2.48,3.74,2.04,1.32,3.96,.55,6-.06,2.04-.61,3.96-.99,4.95-3.19,.61-1.27,.55-2.86,.11-4.46l-1.65-5.61-13.54,3.96,1.65,5.61h0Zm10.46-5.83l.66,2.31c.33,1.05,.22,1.82-.17,2.53-.44,.77-1.27,1.1-3.36,1.71s-3.03,.83-3.85,.44c-.72-.39-1.21-.99-1.49-2.04l-.66-2.31,8.86-2.64h0Z"/><path class="b" d="M104.77,86.66l.5,.99h.66l-1.98-3.85h-.39l-1.93,3.85h.66l.5-.99h1.98Zm-.99-1.98l.77,1.49h-1.49l.72-1.49Z"/><path class="b" d="M95.25,114.13l.06,13.87c0,.11,.06,.22,.11,.33,.11,.11,.22,.11,.33,.11h9.03c.11,0,.22-.06,.33-.11s.11-.22,.11-.33v-2.42c0-.11-.06-.22-.17-.33-.11-.11-.22-.11-.33-.11h-5.83v-11.01c0-.11-.06-.22-.11-.33-.11-.11-.22-.11-.33-.11h-2.7c-.11,0-.22,.06-.33,.11-.11,.11-.11,.22-.17,.33h0Zm2.75,.44v11.01c0,.11,.06,.22,.11,.33s.22,.11,.33,.11h5.83v1.49h-8.09l-.06-12.99,1.87,.06h0Z"/><polygon class="b" points="101.08 103.67 97.56 103.67 97.56 107.52 98.17 107.52 98.17 105.76 100.04 105.76 100.04 105.21 98.17 105.21 98.17 104.22 101.08 104.22 101.08 103.67"/><polygon class="b" points="115.67 77.14 117.16 77.36 118.31 69.88 121.01 70.26 121.23 69.11 114.18 68.06 114.02 69.22 116.77 69.66 115.67 77.14"/><path class="b" d="M153.21,105.38c.5-.99,.61-1.98,.33-3.25-.44-2.04-1.71-3.08-3.25-2.75-.72,.17-1.21,.5-1.49,1.05-.28,.5-.39,1.21-.28,2.04l.11,1.21c.06,.61,0,.88-.11,1.16-.17,.33-.44,.5-.83,.61-.83,.17-1.49-.44-1.76-1.76-.22-.99-.17-1.82,.28-2.7l-1.05-.83c-.66,1.1-.72,2.26-.39,3.74,.44,2.09,1.71,3.36,3.3,3.03,.72-.17,1.32-.55,1.6-1.16,.22-.5,.33-1.05,.28-1.98l-.11-1.16c-.06-.5,0-.88,.17-1.21,.17-.33,.39-.5,.72-.55,.77-.17,1.49,.33,1.71,1.54,.17,.83,.17,1.6-.22,2.31l.99,.66h0Z"/><path class="b" d="M121.28,128.27c.11,.11,.22,.11,.33,.11h2.7c.11,0,.22-.06,.33-.11s.11-.22,.11-.33l-.06-13.87c0-.11-.06-.22-.11-.33s-.22-.11-.33-.11h-2.7c-.11,0-.22,.06-.33,.11s-.11,.22-.11,.33l.06,13.87c0,.17,.06,.28,.11,.33h0Zm2.53-13.76v12.99h-1.76l-.06-12.99h1.82Z"/><rect class="b" x="122.01" y="74.76" width="8.81" height="1.54" transform="translate(7.64 162.59) rotate(-67.1)"/><path class="b" d="M126.62,98.17l-1.43-2.7c.61-.22,1.16-.77,1.16-1.65,0-1.05-.77-1.93-2.04-1.93h-2.48v6.33h1.21v-2.53h.88l1.27,2.53,1.43-.06h0Zm-2.37-3.52h-1.16v-1.65h1.16c.55,0,.88,.33,.88,.83s-.33,.77-.88,.83h0Z"/><path class="b" d="M128.6,93.71c0,.55,.17,.94,.44,1.27,.28,.28,.66,.44,1.21,.5l.77,.11c.28,.06,.44,.11,.55,.22s.22,.33,.22,.55c0,.5-.39,.77-1.1,.77-.61,0-1.1-.11-1.54-.55l-.77,.83c.61,.61,1.32,.83,2.31,.83,1.32,0,2.37-.72,2.31-1.93,0-.55-.17-1.05-.5-1.32-.28-.22-.61-.39-1.21-.5l-.77-.11c-.28-.06-.44-.11-.61-.22-.11-.11-.17-.28-.17-.44,0-.44,.33-.83,.99-.83,.44,0,.88,.06,1.32,.44l.77-.77c-.55-.5-1.16-.72-2.04-.72-1.38-.06-2.26,.77-2.2,1.87h0Z"/><path class="b" d="M117.98,116.82c.11-.11,.11-.22,.11-.33v-2.42c0-.11-.06-.22-.17-.33-.11-.11-.22-.11-.33-.11h-9.14c-.11,0-.22,.06-.33,.11s-.11,.22-.11,.33l.06,13.87c0,.11,.06,.22,.11,.33s.22,.11,.33,.11h2.7c.11,0,.22-.06,.33-.11s.11-.22,.11-.33v-5.17h5.01c.11,0,.22-.06,.33-.11,.11-.11,.11-.22,.11-.33v-2.42c0-.11-.06-.22-.17-.33-.11-.11-.22-.11-.33-.11h-5.01v-2.48h5.94c.22,0,.39-.06,.44-.17h0Zm-6.77-.77c-.11,0-.22,.06-.33,.11s-.11,.22-.11,.33v3.41c0,.11,.06,.22,.11,.33,.11,.11,.22,.11,.33,.11h5.01v1.49h-5.01c-.11,0-.22,.06-.33,.11s-.11,.22-.11,.33v5.17h-1.76v-12.99h8.2v1.49l-6,.11h0Z"/><polygon class="b" points="127.94 60.58 120.57 58.98 121.34 55.62 127.56 57 128.11 54.58 121.83 53.26 122.55 50.01 129.87 51.6 130.42 49.18 119.96 46.93 116.99 60.74 127.39 63 127.94 60.58"/><path class="b" d="M112.09,105.54c0,.61,.22,1.05,.66,1.43,.44,.39,.99,.61,1.71,.55,.72,0,1.27-.22,1.71-.61,.44-.39,.66-.88,.66-1.49s-.22-1.1-.66-1.43c-.44-.39-.99-.55-1.71-.55-.66,0-1.27,.22-1.71,.61-.44,.44-.66,.94-.66,1.49h0Zm1.1-1.05c.33-.28,.72-.44,1.27-.44,.5,0,.94,.17,1.27,.44s.5,.61,.5,1.05-.17,.77-.5,1.05c-.33,.28-.72,.44-1.27,.44-.5,0-.94-.11-1.27-.44-.33-.28-.5-.61-.5-1.05s.17-.77,.5-1.05h0Z"/><polygon class="b" points="96.9 97.12 96.9 91.89 95.69 91.95 95.69 98.22 99.76 98.22 99.76 97.12 96.9 97.12"/><path class="b" d="M147.1,125.19h0c.5,.55,1.27,.88,2.09,.88,.88,0,1.6-.33,2.09-.88h0c.33-.33,.55-.77,.66-1.38s.17-1.49,.17-2.81-.06-2.2-.17-2.81c-.11-.61-.33-1.05-.66-1.38h0c-.5-.55-1.21-.88-2.09-.88s-1.6,.33-2.09,.88h0c-.33,.33-.55,.77-.66,1.38s-.11,1.49-.11,2.81,.06,2.2,.17,2.81c.06,.61,.28,.99,.61,1.38h0Zm.28-6.88c.11-.5,.22-.72,.44-.94h0c.28-.33,.77-.61,1.43-.61s1.1,.22,1.38,.61h0c.22,.28,.33,.44,.44,.94,.11,.5,.17,1.32,.17,2.64s-.06,2.15-.11,2.64c-.11,.5-.22,.72-.44,.94h0c-.28,.33-.77,.61-1.38,.61s-1.1-.22-1.43-.61h0c-.22-.28-.33-.44-.44-.94-.11-.5-.11-1.32-.11-2.64-.06-1.32-.06-2.15,.06-2.64h0Z"/><polygon class="b" points="124.09 104.72 124.09 107.47 124.7 107.47 124.7 103.62 124.2 103.62 122.6 105.87 121.01 103.62 120.51 103.62 120.51 107.47 121.12 107.47 121.12 104.72 122.6 106.81 124.09 104.72"/><path class="b" d="M108.02,107.47h.66l-1.05-1.71c.28-.06,.5-.17,.66-.39s.28-.44,.28-.72c0-.33-.11-.61-.33-.77-.22-.17-.55-.28-.94-.28h-2.64v3.85h.61v-1.71h1.65l1.1,1.71h0Zm-2.75-2.2v-1.05h2.04c.22,0,.39,.06,.5,.11,.11,.11,.17,.22,.17,.39s-.06,.28-.17,.39-.28,.11-.5,.11l-2.04,.06h0Z"/><path class="b" d="M137.35,128.38h2.42c.11,0,.22-.06,.33-.17s.11-.22,.11-.33l-.06-13.87c0-.11-.06-.22-.11-.33-.11-.11-.22-.11-.33-.11h-2.7c-.11,0-.22,.06-.33,.11-.11,.11-.11,.22-.11,.33v6.93l-4.68-7.16c-.11-.11-.22-.22-.39-.22h-2.42c-.11,0-.22,.06-.33,.17-.11,.11-.11,.22-.11,.33l.06,13.87c0,.11,.06,.22,.11,.33,.11,.11,.22,.11,.33,.11h2.7c.11,0,.22-.06,.33-.11,.11-.11,.11-.22,.11-.33v-6.93l4.68,7.16c.06,.17,.22,.22,.39,.22h0Zm-5.17-9.19c-.11-.17-.33-.28-.5-.17-.22,.06-.33,.22-.33,.44v8.04h-1.76v-12.99h1.71l5.39,8.26c.11,.17,.33,.22,.5,.17,.22-.06,.33-.22,.33-.44v-8.04h1.76v12.99h-1.71l-5.39-8.26Z"/><path class="b" d="M113.41,164.27l-3.08,9.03,2.04-.17,.5-1.6,3.58-.22,.72,1.54,2.04-.17-4.29-8.53-1.49,.11h0Zm-.06,5.78l1.05-3.3,1.43,3.14-2.48,.17h0Z"/><path class="b" d="M100.42,141.48l-1.54-.61c-.17-.06-.39,0-.5,.11l-7.6,8.53c-.11,.11-.17,.28-.11,.44s.11,.28,.28,.33l2.04,.83c.17,.06,.39,0,.5-.11l1.1-1.27,2.92,1.16-.11,1.65c0,.22,.11,.39,.28,.44l2.04,.83c.17,.06,.28,.06,.44-.06,.11-.11,.22-.22,.22-.39l.33-11.39c.06-.22-.11-.39-.28-.5h0Zm-.94,11.17l-1.1-.44,.11-1.65c0-.22-.11-.39-.28-.44l-3.52-1.43c-.17-.06-.39,0-.5,.11l-1.1,1.27-1.1-.44,6.93-7.76,.94,.39-.39,10.4h0Z"/><path class="b" d="M103.89,165.86c.33-.28,.77-.39,1.32-.33,.99,.11,1.43,.72,1.54,1.43l1.98,.22c-.17-1.87-1.54-2.97-3.41-3.14-1.1-.11-2.04,.17-2.81,.66-1.1,.77-1.21,1.87-1.32,3.41-.17,1.54-.28,2.59,.66,3.58,.66,.66,1.49,1.1,2.59,1.21,1.87,.17,3.41-.61,3.96-2.42l-1.98-.22c-.28,.66-.83,1.16-1.82,1.1-.55-.06-.94-.28-1.21-.61-.33-.39-.44-.83-.22-2.53,.11-1.65,.28-2.04,.72-2.37h0Z"/><path class="b" d="M111.49,155.19l2.42,.11c.17,0,.33-.06,.39-.22,.11-.11,.11-.33,.06-.44l-1.98-4.29c.44-.22,.83-.5,1.16-.88,.44-.55,.77-1.21,.77-2.09v-.22c0-.94-.33-1.87-.99-2.53s-1.6-1.1-2.75-1.16l-4.18-.22c-.28,0-.5,.17-.5,.44l-.55,10.73c0,.28,.17,.5,.44,.5l2.09,.11c.11,0,.22-.06,.33-.11,.11-.06,.17-.22,.17-.33l.17-3.8,.77,.06,1.76,4.13c.11,.11,.28,.22,.44,.22h0Zm-1.82-5.28l-1.49-.06c-.11,0-.22,.06-.33,.11-.11,.06-.17,.22-.17,.33l-.17,3.8-1.16-.06,.5-9.8,3.74,.17c.94,.06,1.65,.39,2.15,.88s.72,1.16,.72,1.93v.17c-.06,.66-.28,1.16-.55,1.54-.33,.39-.77,.66-1.21,.77-.11,.06-.22,.11-.28,.28-.06,.11-.06,.28,0,.39l1.87,4.07-1.38-.06-1.76-4.13c-.17-.22-.33-.33-.5-.33h0Z"/><path class="b" d="M98.55,144.18c-.17-.06-.39,0-.5,.11l-2.7,3.14c-.11,.11-.11,.28-.11,.39,.06,.17,.17,.28,.28,.33l2.48,.99c.17,.06,.28,.06,.44-.06,.11-.06,.22-.22,.22-.39l.22-4.13c-.06-.17-.17-.33-.33-.39h0Zm-.83,3.85l-1.27-.5,1.38-1.6-.11,2.09h0Z"/><path class="b" d="M112.26,147.32v-.11c0-.5-.17-.99-.55-1.32-.33-.33-.83-.55-1.38-.55l-1.98-.11c-.28,0-.5,.17-.5,.44l-.17,2.81c0,.28,.17,.5,.44,.5l1.98,.11h.11c.55,0,.99-.17,1.38-.5,.44-.28,.61-.77,.66-1.27h0Zm-.94-.06c0,.28-.11,.5-.28,.66-.17,.17-.39,.28-.72,.28h-.11l-1.54-.06,.11-1.93,1.54,.06c.33,0,.61,.11,.77,.28,.17,.17,.28,.39,.28,.66v.06h-.06Z"/><rect class="b" x="66.45" y="151.82" width="8.81" height="1.98" transform="translate(-88.68 98.77) rotate(-46.41)"/><polygon class="b" points="81.27 155.57 78.13 159.98 78.02 153.26 76.59 152.27 71.47 159.42 73.07 160.58 76.21 156.18 76.32 162.89 77.75 163.88 82.87 156.73 81.27 155.57"/><path class="b" d="M120.73,154.53l1.98-.66c.11-.06,.22-.11,.28-.22s.06-.22,0-.33l-1.32-4.13,1.87,1.87c.11,.11,.33,.17,.44,.11l1.32-.44c.17-.06,.28-.22,.33-.39l.39-2.59,1.32,4.13c.06,.11,.11,.22,.22,.28s.22,.06,.33,0l1.98-.66c.22-.06,.39-.33,.28-.61l-3.3-10.18c-.06-.11-.11-.22-.22-.28s-.22-.06-.33,0l-1.98,.66c-.17,.06-.28,.22-.33,.39l-.72,5.45-3.8-3.96c-.11-.11-.33-.17-.5-.11l-1.98,.66c-.11,.06-.22,.11-.28,.22-.06,.11-.06,.22,0,.33l3.3,10.18c.22,.22,.5,.33,.72,.28h0Zm-2.86-10.35l1.27-.39,4.24,4.46c.11,.11,.33,.17,.5,.11,.17-.06,.28-.22,.33-.39l.83-6.11,1.27-.39,3.03,9.3-1.1,.39-1.82-5.5c-.06-.22-.28-.33-.5-.33s-.39,.17-.44,.39l-.66,4.24-.83,.28-3.03-3.03c-.17-.17-.39-.17-.55-.06-.17,.11-.28,.33-.22,.55l1.82,5.5-1.1,.39-3.03-9.41h0Z"/><path class="b" d="M90.3,161.35c-.39-.88-1.05-1.54-2.04-2.04-1.05-.5-1.98-.55-2.86-.28-1.32,.39-1.76,1.38-2.37,2.75-.66,1.38-1.16,2.37-.61,3.63,.39,.88,1.05,1.54,2.09,2.04,1.05,.5,1.98,.55,2.86,.28,1.32-.39,1.76-1.38,2.37-2.75,.66-1.38,1.1-2.37,.55-3.63h0Zm-2.31,2.81c-.72,1.54-.99,1.87-1.49,2.04-.39,.17-.88,.11-1.32-.11-.5-.22-.83-.61-.94-.94-.17-.5-.11-.94,.61-2.42,.72-1.54,.99-1.87,1.49-2.04,.39-.17,.88-.11,1.38,.11,.5,.22,.83,.61,.94,.94,.11,.44,.06,.88-.66,2.42h0Z"/><polygon class="b" points="90.52 171.97 92.83 171.26 93.54 168.95 91.62 168.34 90.52 171.97"/><polygon class="b" points="156.84 137.52 161.41 140.33 154.75 140.88 153.81 142.42 161.3 147.04 162.34 145.39 157.72 142.53 164.43 141.98 165.37 140.49 157.88 135.81 156.84 137.52"/><rect class="b" x="162.37" y="129.75" width="1.98" height="8.81" transform="translate(-25.02 230.05) rotate(-66.37)"/><polygon class="b" points="123.76 170.16 122.11 163.06 120.18 163.55 122.22 172.08 128.6 170.6 128.22 169.11 123.76 170.16"/><path class="b" d="M171.42,104.55c-1.21,0-2.09,.44-2.75,1.21-.61,.72-.94,1.76-1.1,3.14l-.22,1.98c-.11,.77-.22,1.1-.5,1.43s-.66,.5-1.16,.5c-1.16,0-1.76-.99-1.82-2.81,0-1.49,.22-2.92,1.1-3.91l-1.82-2.04c-1.38,1.6-1.82,3.47-1.76,5.94,.06,3.41,1.65,6,4.4,5.94,1.27,0,2.26-.44,2.97-1.32,.55-.72,.88-1.65,1.05-3.14l.22-1.93c.06-.66,.28-1.21,.55-1.49,.28-.33,.66-.5,.99-.5,.99,0,1.82,.77,1.82,2.48,0,1.05-.06,2.31-.94,3.36l1.76,1.98c1.16-1.43,1.6-3.03,1.54-5.28,0-3.47-1.82-5.61-4.35-5.56h0Z"/><path class="b" d="M154.36,146.05c-1.1-.99-2.81-.94-4.18,.61l-2.64,2.92,6.49,5.94,1.32-1.43-2.59-2.37,.94-1.05,3.91,.94,1.54-1.71-4.35-.88c.5-.99,.5-2.15-.44-2.97h0Zm-1.43,3.3l-1.27,1.38-1.71-1.6,1.27-1.38c.61-.66,1.32-.72,1.82-.28,.5,.5,.5,1.21-.11,1.87h0Z"/><path class="b" d="M161.52,126.51l7.49,5.94,.55-1.98-1.32-.99,.99-3.47,1.65-.17,.55-1.98-9.47,1.1-.44,1.54h0Zm6.16-.39l-.72,2.42-2.75-2.09,3.47-.33h0Z"/><polygon class="b" points="69.99 145.61 64.59 146.44 66.79 141.48 65.58 139.94 58.59 145.28 59.8 146.88 63.88 143.74 62.45 147.32 63.22 148.36 67.07 147.87 63 150.95 64.21 152.54 71.14 147.15 69.99 145.61"/><path class="b" d="M145.61,152.43c-.94-.06-1.82,.17-2.75,.88-.94,.72-1.38,1.49-1.6,2.42-.28,1.32,.44,2.2,1.32,3.41,.94,1.21,1.6,2.09,2.92,2.2,.94,.06,1.87-.22,2.75-.88,.94-.72,1.38-1.49,1.6-2.42,.28-1.32-.44-2.2-1.32-3.41-.94-1.21-1.6-2.09-2.92-2.2h0Zm2.48,5.67c-.06,.39-.28,.83-.72,1.16s-.88,.44-1.32,.39c-.55-.06-.88-.33-1.87-1.65-1.05-1.32-1.21-1.71-1.1-2.26,.06-.39,.28-.83,.72-1.16s.88-.44,1.27-.39c.55,.06,.88,.33,1.87,1.65,1.05,1.32,1.21,1.71,1.16,2.26h0Z"/><polygon class="b" points="139.89 159.98 136.36 161.85 135.32 159.98 139.45 157.77 138.73 156.4 132.9 159.53 137.02 167.3 138.73 166.36 137.08 163.22 140.6 161.35 139.89 159.98"/><rect class="b" x="129.93" y="160.64" width="1.98" height="8.81" transform="translate(-49.87 56.9) rotate(-20.69)"/><path class="b" d="M137.63,138.84h-.28c-.66,0-1.32,.22-2.15,.72h0l-1.1,.66h0c-.28,.17-.55,.22-.72,.22h-.06c-.17,0-.28-.11-.39-.22-.11-.17-.17-.33-.17-.5,0-.28,.11-.61,.55-.94,.5-.39,.99-.72,1.65-.72h.22c.22,0,.5-.17,.5-.39l.22-1.87c0-.11,0-.22-.11-.33s-.17-.17-.33-.17h-.55c-1.16,0-2.26,.44-3.3,1.27-1.16,.94-1.82,2.09-1.82,3.3,0,.77,.28,1.54,.83,2.2,.61,.77,1.38,1.27,2.2,1.38h.33c.72,0,1.38-.22,2.15-.66h0l1.1-.66c.39-.22,.5-.22,.66-.22h.06c.17,0,.33,.11,.5,.33,.11,.17,.17,.33,.17,.44s-.06,.28-.17,.5c-.11,.17-.33,.39-.61,.66-.66,.5-1.32,.83-1.98,.83h-.28c-.28-.06-.5,.17-.5,.39l-.22,1.93c-.06,.28,.17,.5,.39,.5,.22,.06,.44,.06,.66,.06,1.32,0,2.48-.55,3.63-1.43,1.21-.94,1.98-2.2,1.98-3.52,0-.72-.28-1.49-.77-2.15-.55-.94-1.38-1.49-2.31-1.6h0Zm.66,6.38c-1.05,.83-1.98,1.27-3.03,1.27h-.11l.11-.99c.94,0,1.76-.44,2.48-.99,.33-.28,.61-.55,.83-.88s.33-.66,.33-.99c0-.39-.17-.72-.39-1.05-.28-.39-.66-.66-1.16-.66h-.17c-.33,0-.72,.11-1.1,.33h0l-1.1,.66c-.66,.39-1.21,.55-1.71,.55h-.22c-.61-.06-1.1-.39-1.6-.99-.44-.55-.61-1.1-.61-1.65,0-.88,.44-1.76,1.49-2.59,.94-.77,1.76-1.1,2.7-1.1l-.11,.94c-.88,.06-1.54,.5-2.04,.88-.61,.5-.94,1.05-.94,1.65,0,.39,.17,.77,.39,1.1,.22,.28,.61,.55,1.05,.61h.17c.39,0,.77-.11,1.16-.33h0l1.1-.66h0c.72-.44,1.21-.55,1.65-.55h.17c.61,.06,1.21,.44,1.76,1.1,.39,.5,.61,1.05,.61,1.6-.11,.88-.66,1.93-1.71,2.75h0Z"/><path class="b" d="M63.55,78.24c1.87,1.6,3.19,2.75,5.34,2.48,1.49-.22,2.81-.94,4.02-2.31s1.71-2.81,1.65-4.35c0-2.15-1.38-3.3-3.25-4.9s-3.19-2.75-5.34-2.42c-1.49,.22-2.81,.88-4.02,2.31-1.21,1.38-1.71,2.81-1.71,4.35,.06,2.09,1.43,3.25,3.3,4.84h0Zm.28-7.65c.55-.66,1.27-.99,1.87-1.05,.83-.06,1.49,.22,3.52,1.98,2.09,1.76,2.42,2.31,2.48,3.19,.06,.66-.17,1.38-.77,2.04-.55,.66-1.27,.99-1.93,1.05-.88,.06-1.43-.22-3.52-1.98-2.09-1.76-2.48-2.31-2.53-3.19,.06-.61,.33-1.38,.88-2.04h0Z"/><path class="b" d="M92.83,141.04c.22,.17,.5,.11,.66-.06l1.16-1.49c.06-.11,.11-.22,.11-.33s-.06-.22-.17-.33l-5.5-4.4c-.22-.17-.5-.11-.66,.06l-6.71,8.37c-.06,.11-.11,.22-.11,.33s.06,.22,.17,.33l1.65,1.32c.22,.17,.5,.11,.66-.06l2.42-3.03,2.97,2.37c.22,.17,.5,.11,.66-.06l1.16-1.49c.06-.11,.11-.22,.11-.33s-.06-.22-.17-.33l-2.97-2.37,1.05-1.32,3.52,2.81h0Zm-3.96-3.74l-1.65,2.04c-.06,.11-.11,.22-.11,.33s.06,.22,.17,.33l2.97,2.37-.61,.72-2.97-2.37c-.22-.17-.5-.11-.66,.06l-2.42,3.03-.94-.72,6.11-7.65,4.79,3.85-.61,.72-3.52-2.81c-.11-.11-.39-.11-.55,.11h0Z"/><path class="b" d="M82.87,92.11l.88-1.54-4.51,.06c.33-1.1,.06-2.26-1.05-2.92-1.32-.77-2.86-.22-3.8,1.43l-1.93,3.41,7.65,4.4,.77-1.32-3.19-1.87,.94-1.65h4.24Zm-5.06-.88l-1.16,1.98-2.37-1.38,1.16-1.98c.5-.88,1.32-1.21,2.04-.77,.72,.39,.83,1.27,.33,2.15h0Z"/><polygon class="b" points="69.93 99.1 68.56 106.04 69.71 106.26 70.26 103.56 77.75 105.05 78.02 103.56 70.59 102.07 71.14 99.32 69.93 99.1"/><path class="b" d="M70.37,125.96c.11,.11,.22,.11,.33,.11h2.04c.5,0,.99-.11,1.38-.28s.72-.44,.99-.77h0c.33-.39,.5-.88,.61-1.54,.11-.66,.11-1.43,.11-2.48s0-1.82-.11-2.42c-.11-.61-.28-1.1-.61-1.49h0c-.28-.33-.61-.61-.99-.77-.39-.17-.88-.28-1.38-.28h-2.04c-.11,0-.22,.06-.33,.17s-.11,.22-.11,.33v9.03c-.06,.22,0,.33,.11,.39h0Zm2.37-8.92c.44,0,.77,.06,.99,.17,.28,.11,.5,.28,.66,.5s.33,.5,.39,1.05c.06,.5,.11,1.27,.11,2.31s0,1.82-.11,2.37c-.06,.55-.22,.88-.39,1.1-.22,.22-.39,.39-.66,.5s-.61,.17-.99,.17h-1.6v-8.15h1.6Z"/><path class="b" d="M67.62,113.85c-.11,.11-.11,.22-.11,.33l.06,13.87c0,.11,.06,.22,.11,.33s.22,.11,.33,.11h5.01c1.54,0,2.97-.44,3.96-1.49h0c.72-.72,1.1-1.54,1.32-2.37s.22-1.71,.22-2.59v-2.09c0-.88,0-1.71-.22-2.53s-.61-1.65-1.32-2.31c-1.05-1.05-2.48-1.43-4.02-1.43h-5.01l-.33,.17h0Zm5.34,.77c1.38,0,2.53,.39,3.36,1.21,.61,.61,.88,1.21,1.1,1.93s.22,1.49,.22,2.31v2.09c0,.83,0,1.65-.22,2.37-.17,.72-.5,1.38-1.05,1.93-.83,.83-1.98,1.21-3.36,1.21h-4.57v-12.99l4.51-.06h0Z"/><path class="b" d="M120.51,85.73c0-.55-.22-1.05-.61-1.38-.39-.39-.88-.55-1.54-.55h-1.71v3.85h1.71c.66,0,1.16-.17,1.54-.55,.44-.33,.61-.83,.61-1.38h0Zm-.99,.99c-.28,.22-.61,.39-1.1,.39h-1.1v-2.75h1.1c.44,0,.77,.11,1.05,.39s.39,.61,.39,.99c.06,.39-.11,.72-.33,.99Z"/><path class="b" d="M119.36,95.03c0-1.1,0-1.87-.66-2.53-.44-.44-.99-.66-1.71-.66s-1.27,.28-1.71,.72c-.66,.66-.61,1.43-.61,2.53s0,1.87,.61,2.53c.44,.44,.99,.72,1.71,.66,.72,0,1.27-.28,1.71-.72,.66-.66,.66-1.43,.66-2.53h0Zm-1.54,1.76c-.17,.22-.44,.33-.77,.33s-.61-.11-.83-.33c-.22-.28-.28-.55-.33-1.76,0-1.21,.06-1.49,.28-1.76,.17-.22,.44-.33,.77-.33s.61,.11,.77,.33c.22,.28,.33,.55,.33,1.76s0,1.49-.22,1.76h0Z"/><path class="b" d="M95.69,71.03l-3.3,1.32,3.25,8.2,3.3-1.32c.99-.39,1.71-.99,2.09-1.71,.66-1.27,.06-2.59-.39-3.74-.5-1.21-.88-2.42-2.26-2.86-.77-.33-1.71-.28-2.7,.11h0Zm3.58,3.3c.44,1.1,.77,2.04,.5,2.7-.22,.55-.72,.94-1.38,1.16l-1.71,.66-2.37-5.94,1.71-.66c.66-.28,1.27-.28,1.82-.06,.66,.22,.99,.99,1.43,2.15Z"/><polygon class="b" points="93.38 91.95 89.2 91.95 89.2 98.22 90.46 98.22 90.46 95.69 92.94 95.69 92.94 94.59 90.46 94.59 90.41 93.05 93.38 93.05 93.38 91.95"/><polygon class="b" points="104.5 60.96 103.89 52.32 110.88 60.52 113.69 60.36 112.7 46.21 109.56 46.43 110.17 55.07 103.18 46.93 100.31 47.09 101.36 61.18 104.5 60.96"/><path class="b" d="M62.5,134l-9.52,.61,.94,1.82,1.65-.17,1.6,3.19-1.16,1.21,.94,1.82,6.27-7.21-.72-1.27h0Zm-4.29,4.4l-1.1-2.26,3.41-.28-2.31,2.53Z"/><rect class="b" x="59.02" y="76.45" width="3.14" height="14.14" transform="translate(-41.76 96.56) rotate(-61.3)"/><polygon class="b" points="60.74 104.83 58.26 104.77 58.15 112.26 54.74 112.2 54.85 105.82 52.37 105.82 52.26 112.2 48.96 112.15 49.07 104.66 46.6 104.61 46.43 115.28 60.58 115.45 60.74 104.83"/><path class="b" d="M91.84,116.88c.11-.11,.11-.22,.11-.33v-2.42c0-.11-.06-.22-.17-.33-.11-.11-.22-.11-.33-.11h-9.14c-.11,0-.22,.06-.33,.11s-.11,.22-.11,.33l.06,13.87c0,.11,.06,.22,.11,.33s.22,.11,.33,.11h9.14c.11,0,.22-.06,.33-.11s.11-.22,.11-.33v-2.42c0-.11-.06-.22-.17-.33-.11-.11-.22-.11-.33-.11h-6v-2.48h5.01c.11,0,.22-.06,.33-.11s.11-.22,.11-.33v-2.42c0-.11-.06-.22-.17-.33s-.22-.11-.33-.11h-5.01v-2.31h5.94c.33,0,.44-.06,.5-.17h0Zm-6.77-.77c-.11,0-.22,.06-.33,.11s-.11,.22-.11,.33v3.25c0,.11,.06,.22,.11,.33,.11,.11,.22,.11,.33,.11h5.01v1.49h-5.01c-.11,0-.22,.06-.33,.11-.11,.11-.11,.22-.11,.33v3.36c0,.11,.06,.22,.11,.33s.22,.11,.33,.11h6v1.49h-8.2v-12.99h8.2v1.49l-6,.17h0Z"/><path class="b" d="M54.8,131.69l-.55-1.93c-.72,0-1.38-.33-1.71-1.27-.17-.5-.11-.99,.06-1.32,.22-.5,.61-.72,2.26-1.16,1.65-.5,2.04-.5,2.53-.22,.33,.17,.66,.55,.77,1.1,.28,.94-.11,1.6-.72,1.98l.55,1.93c1.65-.88,2.15-2.53,1.6-4.35-.33-1.05-.88-1.82-1.71-2.31-1.16-.72-2.2-.39-3.63,.06-1.49,.44-2.53,.72-3.08,1.93-.39,.88-.44,1.82-.17,2.86,.61,1.76,1.93,2.92,3.8,2.7h0Z"/><path class="b" d="M62.78,96.52c.5-1.6,.5-3.19-.06-4.46-.99-2.2-3.03-2.59-5.06-3.19s-3.85-1.32-5.89-.06c-1.21,.77-2.04,2.09-2.53,3.69l-1.65,5.61,13.54,4.02,1.65-5.61h0Zm-2.42-.39l-.66,2.31-8.86-2.59,.66-2.31c.33-1.05,.83-1.65,1.49-2.04,.77-.39,1.65-.22,3.74,.39,2.04,.61,3.03,.99,3.47,1.71,.39,.72,.5,1.49,.17,2.53h0Z"/><rect class="b" x="92.83" y="48.98" width="3.14" height="14.15" transform="translate(-12.18 29.73) rotate(-16.83)"/><path class="b" d="M82.76,79.01l2.97,9.08,1.21-1.05-.61-1.82,3.03-2.59,1.71,.88,1.21-1.05-8.59-4.24-.94,.77h0Zm5.5,3.03l-2.37,2.04-1.38-3.96,3.74,1.93h0Z"/><polygon class="b" points="88.42 66.02 86.5 51 83.58 52.54 85.07 62.23 77.86 55.62 75 57.16 86.33 67.12 88.42 66.02"/><rect class="b" x="106.59" y="68.33" width="1.54" height="8.81" transform="translate(-6.92 11.45) rotate(-5.91)"/></svg>